<?xml version="1.0" encoding="utf-8"?>
<!-- Generator: Adobe Illustrator 16.0.0, SVG Export Plug-In . SVG Version: 6.00 Build 0)  -->
<!DOCTYPE svg PUBLIC "-//W3C//DTD SVG 1.1//EN" "http://www.w3.org/Graphics/SVG/1.1/DTD/svg11.dtd">
<svg version="1.1" id="Layer_1" xmlns="http://www.w3.org/2000/svg" xmlns:xlink="http://www.w3.org/1999/xlink" x="0px" y="0px"
	 width="128px" height="128px" viewBox="0 0 128 128" enable-background="new 0 0 128 128" xml:space="preserve">
<g>
	<g>
		<g>
			<rect x="30.125" y="81.014" fill="#282D33" width="4" height="26.607"/>
		</g>
		<g>
			<rect x="46.062" y="81.014" fill="#282D33" width="4" height="26.607"/>
		</g>
		<g>
			<rect x="62" y="81.014" fill="#282D33" width="4" height="26.607"/>
		</g>
		<g>
			<rect x="77.938" y="81.014" fill="#282D33" width="4" height="26.607"/>
		</g>
		<g>
			<rect x="93.875" y="81.014" fill="#282D33" width="4" height="26.607"/>
		</g>
	</g>
	<g>
		<path fill="#282D33" d="M123.469,73.245H4.53c-2.498,0-4.53-2.044-4.53-4.556V52.492c0-2.512,2.032-4.556,4.53-4.556h44.286v4
			H4.53c-0.292,0-0.53,0.25-0.53,0.556v16.197c0,0.307,0.238,0.556,0.53,0.556h118.939c0.293,0,0.531-0.249,0.531-0.556V52.492
			c0-0.307-0.238-0.556-0.531-0.556H79.6v-4h43.869c2.499,0,4.531,2.044,4.531,4.556v16.197
			C128,71.201,125.968,73.245,123.469,73.245z"/>
	</g>
	<g>
		<path fill="#282D33" d="M114.611,120.127H13.388c-2.499,0-4.531-2.044-4.531-4.557V72.949h4v42.621
			c0,0.307,0.238,0.557,0.531,0.557h101.223c0.293,0,0.531-0.25,0.531-0.557V72.949h4v42.621
			C119.143,118.083,117.109,120.127,114.611,120.127z"/>
	</g>
	<g>
		<path fill="#282D33" d="M68.639,62.164H59.36c-2.498,0-4.53-2.045-4.53-4.558V12.43c0-2.513,2.032-4.557,4.53-4.557h9.279
			c2.499,0,4.531,2.044,4.531,4.557v45.176C73.17,60.119,71.138,62.164,68.639,62.164z M59.36,11.873c-0.292,0-0.53,0.25-0.53,0.557
			v45.176c0,0.308,0.238,0.558,0.53,0.558h9.279c0.293,0,0.531-0.25,0.531-0.558V12.43c0-0.307-0.238-0.557-0.531-0.557H59.36z"/>
	</g>
</g>
</svg>
